# xmcd CD database file
#
# Track frame offsets:
#	150
#	3416
#	11012
#	26105
#	35832
#	44332
#	58260
#	68735
#	91031
#	95490
#	108947
#	125466
#	135111
#	137577
#	144857
#	160030
#	172475
#	183572
#
# Disc length: 2480 seconds
#
# Revision: 0
# Processed by: cddbd v1.5.1PL0 Copyright (c) Steve Scherf et al.
# Submitted via: CDex 1.51
#
DISCID=f209ae12
DTITLE=Magnus Strömberg - Saltön  -  Musiken från TV-serien
DYEAR=2005
DGENRE=TV Theme
TTITLE0=Vinjett
TTITLE1=Hummerfiske
TTITLE2=Cykeltur
TTITLE3=Eftertext
TTITLE4=Avslut
TTITLE5=Blomgren
TTITLE6=Gubbarna kommer
TTITLE7=Saras morgon
TTITLE8=Eftertänk
TTITLE9=Kärlek
TTITLE10=Promenad
TTITLE11=Dyklektion
TTITLE12=Rivstart
TTITLE13=Balkongfest
TTITLE14=Sara flyttar
TTITLE15=Månsson är dålig
TTITLE16=Romantik
TTITLE17=Skål
EXTD=YEAR: 2005
EXTT0=
EXTT1=
EXTT2=
EXTT3=
EXTT4=
EXTT5=
EXTT6=
EXTT7=
EXTT8=
EXTT9=
EXTT10=
EXTT11=
EXTT12=
EXTT13=
EXTT14=
EXTT15=
EXTT16=
EXTT17=
PLAYORDER=
